<svg xmlns="http://www.w3.org/2000/svg" viewBox="0 0 64 64" role="img" aria-label="Pinecone">
  <g fill="#202020">
    <path d="M31.9 7.5 22.4 17l3.4 3.4 3.7-3.7v10.5h4.8V16.6l3.8 3.8 3.4-3.4-9.6-9.5Z"/>
    <path d="m17.2 20.2-13 3.5 3.5 13 4.6-1.2-1.4-5.2 9.1 5.2 2.4-4.2-9.1-5.2 5.2-1.4-1.3-4.5Z"/>
    <path d="m46.8 20.2-1.3 4.5 5.2 1.4-9.1 5.2 2.4 4.2 9.1-5.2-1.4 5.2 4.6 1.2 3.5-13-13-3.5Z"/>
    <path d="M19.9 39.8 10.8 45l1.4-5.2-4.6-1.2-3.5 13 13 3.5 1.3-4.6-5.2-1.4 9.1-5.2-2.4-4.1Z"/>
    <path d="m44.1 39.8-2.4 4.1 9.1 5.2-5.2 1.4 1.3 4.6 13-3.5-3.5-13-4.6 1.2 1.4 5.2-9.1-5.2Z"/>
    <path d="M31.9 36.6a4.6 4.6 0 1 0 0-9.2 4.6 4.6 0 0 0 0 9.2Z"/>
    <path d="M24.2 53.1a4.1 4.1 0 1 0 8.2 0 4.1 4.1 0 0 0-8.2 0Z"/>
  </g>
</svg>
